HIERARCHY
ROOT Hips
{
	OFFSET 0.000000 0.000000 0.000000
	CHANNELS 6 Xposition Yposition Zposition Zrotation Yrotation Xrotation 
	JOINT LHipJoint
	{
		OFFSET 0.000000 0.000000 0.000000
		CHANNELS 3 Zrotation Yrotation Xrotation
		JOINT LeftUpLeg
		{
			OFFSET 1.363060 -1.794630 0.839290
			CHANNELS 3 Zrotation Yrotation Xrotation
			JOINT LeftLeg
			{
				OFFSET 2.448110 -6.726130 0.000000
				CHANNELS 3 Zrotation Yrotation Xrotation
				JOINT LeftFoot
				{
					OFFSET 2.562200 -7.039590 0.000000
					CHANNELS 3 Zrotation Yrotation Xrotation
					JOINT LeftToeBase
					{
						OFFSET 0.157640 -0.433110 2.322550
						CHANNELS 3 Zrotation Yrotation Xrotation
						End Site
						{
							OFFSET 0.000000 0.000000 0.000000
						}
					}
				}
			}
		}
	}
	JOINT RHipJoint
	{
		OFFSET 0.000000 0.000000 0.000000
		CHANNELS 3 Zrotation Yrotation Xrotation
		JOINT RightUpLeg
		{
			OFFSET -1.305520 -1.794630 0.839290
			CHANNELS 3 Zrotation Yrotation Xrotation
			JOINT RightLeg
			{
				OFFSET -2.542530 -6.985550 0.000000
				CHANNELS 3 Zrotation Yrotation Xrotation
				JOINT RightFoot
				{
					OFFSET -2.568260 -7.056230 0.000000
					CHANNELS 3 Zrotation Yrotation Xrotation
					JOINT RightToeBase
					{
						OFFSET -0.164730 -0.452590 2.363150
						CHANNELS 3 Zrotation Yrotation Xrotation
						End Site
						{
							OFFSET 0.000000 0.000000 0.000000
						}
					}
				}
			}
		}
	}
}
MOTION
Frames: 16
Frame Time: 0.008333
2.379216 16.492332 0.923667 -175.346366 -64.295132 -143.925173 -9.190771 2.332959 -3.151165 -29.146356 20.149685 -66.892827 -5.309140 4.198786 38.039019 3.455904 13.360491 -16.416359 -1.563000 0.000000 -41.368200 8.286363 1.565550 3.840678 5.038573 3.975929 -64.917500 3.331373 -1.986269 30.433501 1.012248 5.725851 -1.592550 0.368400 -0.000001 -70.314500
2.392847 16.482197 0.924423 -175.588288 -64.157985 -143.559767 -9.171197 2.322502 -3.183875 -29.219252 19.923713 -67.035669 -5.280484 4.227083 38.259108 3.516660 13.615405 -16.515632 -1.608100 -0.000000 -41.189200 8.291807 1.616531 3.829659 4.868208 3.996656 -65.255281 3.306862 -2.026248 30.672630 1.024069 5.807046 -1.636861 0.383500 0.000000 -70.329300
2.405101 16.471516 0.925964 -175.773449 -64.032071 -143.235439 -9.154999 2.311019 -3.209065 -29.282353 19.702726 -67.212364 -5.254056 4.258739 38.487357 3.574469 13.846543 -16.626974 -1.654600 0.000000 -41.005800 8.291644 1.662115 3.825412 4.717052 4.039162 -65.599820 3.284016 -2.064073 30.905043 1.032616 5.867766 -1.678526 0.394800 0.000000 -70.341200
2.415654 16.460292 0.928420 -175.900290 -63.919056 -142.949911 -9.142500 2.298813 -3.227660 -29.336978 19.487593 -67.424627 -5.230515 4.294057 38.722710 3.628648 14.050512 -16.750263 -1.702100 0.000000 -40.820500 8.285707 1.702709 3.826068 4.587645 4.099963 -65.951153 3.264019 -2.099703 31.128296 1.038729 5.912111 -1.717293 0.402800 -0.000000 -70.349900
2.424341 16.448536 0.931841 -175.971814 -63.821769 -142.697923 -9.133778 2.286193 -3.240621 -29.384688 19.276665 -67.671498 -5.209990 4.332945 38.964606 3.678777 14.225802 -16.884119 -1.750200 -0.000000 -40.635800 8.274379 1.738913 3.829304 4.481127 4.172576 -66.309275 3.247851 -2.133610 31.342536 1.043306 5.945106 -1.754361 0.408500 -0.000001 -70.355300
2.431406 16.436342 0.936132 -176.001610 -63.743650 -142.470663 -9.128246 2.273223 -3.248986 -29.426784 19.067127 -67.948551 -5.192067 4.374882 39.212651 3.724739 14.372930 -17.026787 -1.798400 0.000000 -40.453700 8.258658 1.771604 3.832668 4.397146 4.248279 -66.673947 3.235961 -2.166760 31.550456 1.047245 5.972358 -1.792054 0.412799 0.000000 -70.356900
2.436839 16.423738 0.941114 -176.000268 -63.687391 -142.257191 -9.125690 2.260156 -3.253545 -29.464295 18.855384 -68.249607 -5.176345 4.419081 39.464906 3.766695 14.494365 -17.174895 -1.846000 0.000001 -40.277100 8.239683 1.801665 3.833789 4.334804 4.318018 -67.044529 3.228881 -2.200085 31.754262 1.051474 5.999481 -1.832012 0.416501 -0.000000 -70.355700
2.440857 16.410827 0.946684 -175.976933 -63.656240 -142.051580 -9.125509 2.246992 -3.255520 -29.498128 18.638022 -68.567628 -5.162254 4.464732 39.719092 3.804838 14.592901 -17.324975 -1.892200 -0.000000 -40.109100 8.218619 1.830538 3.829887 4.292645 4.373086 -67.420072 3.226861 -2.234654 31.957090 1.056668 6.031058 -1.876250 0.420499 -0.000000 -70.352200
2.444029 16.397616 0.952476 -175.954002 -63.650351 -141.838937 -9.126966 2.234451 -3.254967 -29.531382 18.412038 -68.895707 -5.149025 4.511003 39.976208 3.839499 14.671797 -17.475006 -1.936800 0.000000 -39.949200 8.196994 1.858638 3.820614 4.266656 4.405713 -67.801668 3.229175 -2.271857 32.166635 1.063388 6.071399 -1.928629 0.425300 -0.000001 -70.346200
2.446411 16.384141 0.958355 -175.934235 -63.670162 -141.615810 -9.129646 2.222505 -3.253308 -29.564709 18.175749 -69.228167 -5.136390 4.557398 40.233621 3.870971 14.734341 -17.621637 -1.979100 0.000000 -39.800600 8.175612 1.887488 3.803861 4.254813 4.411559 -68.188465 3.235757 -2.312309 32.384627 1.071872 6.122452 -1.989827 0.431400 0.000000 -70.339000
2.448631 16.370447 0.963939 -175.936525 -63.712605 -141.370018 -9.132643 2.211503 -3.251433 -29.601026 17.929088 -69.560934 -5.124121 4.603698 40.491640 3.899336 14.782626 -17.763154 -2.019000 0.000000 -39.664100 8.155430 1.917961 3.779561 4.252835 4.388412 -68.581882 3.245406 -2.356799 32.616475 1.082153 6.185284 -2.061688 0.438800 -0.000000 -70.330300
2.450805 16.356454 0.969048 -175.961851 -63.775693 -141.100262 -9.135570 2.201895 -3.249772 -29.643078 17.672949 -69.892509 -5.112195 4.649770 40.750383 3.924709 14.817941 -17.898838 -2.056100 -0.000000 -39.539900 8.136905 1.950283 3.748523 4.257525 4.337177 -68.983501 3.257466 -2.405719 32.865254 1.094050 6.259451 -2.145347 0.447400 -0.000001 -70.320500
2.453146 16.342109 0.973497 -176.013520 -63.855165 -140.803540 -9.137911 2.194098 -3.248880 -29.694221 17.409776 -70.223733 -5.100860 4.695855 41.010539 3.946936 14.840244 -18.028070 -2.090600 0.000000 -39.428800 8.120276 1.984484 3.712438 4.265127 4.261877 -69.395939 3.270962 -2.459138 33.132911 1.107259 6.343488 -2.240868 0.456900 -0.000000 -70.309100
2.455935 16.327375 0.977087 -176.094130 -63.946515 -140.479142 -9.138995 2.188190 -3.249622 -29.757233 17.143420 -70.557400 -5.090509 4.742565 41.273401 3.965784 14.848720 -18.151593 -2.122300 -0.000000 -39.331400 8.105485 2.020602 3.672850 4.272932 4.168487 -69.821098 3.284786 -2.516871 33.420540 1.121234 6.434520 -2.347872 0.466800 0.000000 -70.295900
2.459043 16.312075 0.979656 -176.198858 -64.044432 -140.127951 -9.138872 2.184920 -3.251406 -29.835698 16.877807 -70.898703 -5.081710 4.790530 41.540891 3.981007 14.841664 -18.270586 -2.151500 0.000000 -39.247000 8.092257 2.057540 3.633364 4.278152 4.064638 -70.263173 3.298242 -2.578541 33.728393 1.135571 6.529930 -2.465696 0.476700 -0.000000 -70.280300
2.462509 16.296148 0.981113 -176.324205 -64.144156 -139.752554 -9.137218 2.184446 -3.254340 -29.931857 16.616568 -71.252934 -5.074910 4.840528 41.814736 3.992369 14.817535 -18.386268 -2.178300 0.000000 -39.175900 8.080225 2.094609 3.596435 4.279359 3.958563 -70.724526 3.310600 -2.643577 34.055295 1.149844 6.626926 -2.592954 0.486101 -0.000000 -70.261700
